<svg width="262" height="262" viewBox="0 0 262 262" fill="none" xmlns="http://www.w3.org/2000/svg">
<rect width="262" height="262" rx="14" fill="#FC8425"/>
<path d="M62.25 224V47.75H139.25C157.75 47.75 172.083 51.8333 182.25 60C192.417 68 197.5 79.1667 197.5 93.5C197.5 103 195.083 111.167 190.25 118C185.417 124.833 178.75 129.833 170.25 133C180.25 135.833 188 140.833 193.5 148C199.167 155 202 163.917 202 174.75C202 190.417 196.667 202.583 186 211.25C175.5 219.75 160.833 224 142 224H62.25ZM93 122.5H133.75C155.583 122.5 166.5 114.083 166.5 97.25C166.5 80.4167 155.583 72 133.75 72H93V122.5ZM93 199.75H138C160 199.75 171 190.917 171 173.25C171 155.583 160 146.75 138 146.75H93V199.75Z" fill="white"/>
</svg>
