<svg width="25" height="25" viewBox="0 0 298 240" fill="none" xmlns="http://www.w3.org/2000/svg">
<path d="M35 105.2C35 101.776 37.7758 99 41.2 99H258.8C262.224 99 265 101.776 265 105.2V206.85C265 223.501 251.501 237 234.85 237H65.15C48.4986 237 35 223.501 35 206.85V105.2Z" fill="white"/>
<path d="M143.041 5.26438C146.445 2.25748 151.555 2.25748 154.959 5.26437L260.216 98.2552C266.428 103.743 262.546 114 254.257 114H43.7427C35.4536 114 31.5719 103.743 37.784 98.2552L143.041 5.26438Z" fill="white"/>
<path d="M108 185.35C108 162.513 126.698 144 149.535 144V144C172.372 144 191.071 162.513 191.071 185.35V237H108V185.35Z" fill="#191C2F"/>
</svg>


